<svg xmlns="http://www.w3.org/2000/svg" width="1280" height="850" viewBox="0 0 1280 850" role="img" aria-labelledby="title desc"><title id="title">Arquitetura técnica do projeto</title><desc id="desc">Fluxo local, implantação AWS e processamento no navegador.</desc><defs><marker id="a" viewBox="0 0 10 10" refX="9" refY="5" markerWidth="7" markerHeight="7" orient="auto"><path d="M0 0L10 5L0 10Z" fill="#8c959f"/></marker><style>.panel{fill:#ffffff;stroke:#d0d7de;stroke-width:1.5}.node{fill:#f6f8fa;stroke:#d0d7de;stroke-width:1.5}.soft{fill:#eef3f8;stroke:#0969da;stroke-width:1.5}.heading{font:600 20px Inter,Segoe UI,Arial,sans-serif;fill:#1f2328}.tag{font:600 12px Inter,Segoe UI,Arial,sans-serif;fill:#0969da;letter-spacing:1px}.label{font:600 15px Inter,Segoe UI,Arial,sans-serif;fill:#1f2328;text-anchor:middle}.detail{font:400 13px Inter,Segoe UI,Arial,sans-serif;fill:#59636e;text-anchor:middle}.edge{fill:none;stroke:#8c959f;stroke-width:2;marker-end:url(#a)}.dash{stroke-dasharray:7 6}.note{font:500 12px Inter,Segoe UI,Arial,sans-serif;fill:#59636e;text-anchor:middle}</style></defs>
 <rect class="panel" x="20" y="20" width="1240" height="530" rx="10"/><text class="tag" x="50" y="58">LOCAL · PYTHON</text><text class="heading" x="50" y="88">Pipeline com multiprocessing</text>
 <path class="edge" d="M230 205H275"/><path class="edge" d="M445 205H480V165H515"/><path class="edge" d="M445 205H480V265H515"/><path class="edge" d="M695 165H735V215H770"/><path class="edge" d="M695 265H735V215H770"/><path class="edge" d="M950 215H990"/><path class="edge" d="M1140 254V300"/>
 <path class="edge dash" d="M400 445V390H605V343"/><path class="edge" d="M500 445H560"/><path class="edge dash" d="M1140 378V405H450V445"/>
 <rect class="node" x="50" y="166" width="180" height="78" rx="7"/><text class="label" x="140" y="197">generate_dataset.py</text><text class="detail" x="140" y="222">gera imagens sintéticas</text><rect class="node" x="275" y="166" width="170" height="78" rx="7"/><text class="label" x="360" y="197">dataset/*.jpg</text><text class="detail" x="360" y="222">entrada</text><rect class="node" x="515" y="126" width="180" height="78" rx="7"/><text class="label" x="605" y="157">sequential.py</text><text class="detail" x="605" y="182">1 processo</text><rect class="soft" x="515" y="226" width="180" height="78" rx="7"/><text class="label" x="605" y="257">parallel.py</text><text class="detail" x="605" y="282">multiprocessing.Pool</text><rect class="soft" x="770" y="176" width="180" height="78" rx="7"/><text class="label" x="860" y="207">image_processor.py</text><text class="detail" x="860" y="232">gray → blur → Sobel</text><rect class="node" x="990" y="176" width="150" height="78" rx="7"/><text class="label" x="1065" y="207">output/</text><text class="detail" x="1065" y="232">PNG de bordas</text><rect class="node" x="1065" y="300" width="150" height="78" rx="7"/><text class="label" x="1140" y="331">verify.py</text><text class="detail" x="1140" y="356">SHA-256</text>
 <rect class="soft" x="300" y="445" width="200" height="78" rx="7"/><text class="label" x="400" y="476">benchmark.py</text><text class="detail" x="400" y="501">orquestra as rodadas</text><rect class="node" x="560" y="445" width="260" height="78" rx="7"/><text class="label" x="690" y="476">results/benchmark.csv</text><text class="detail" x="690" y="501">tempo · speedup · Amdahl</text>
 <text class="note" x="605" y="374">controle das execuções</text><text class="note" x="795" y="424">resultado da verificação</text>
 <rect class="panel" x="20" y="580" width="605" height="240" rx="10"/><text class="tag" x="50" y="620">AWS · EC2</text><text class="heading" x="50" y="650">Execução remota do pipeline Python</text><path class="edge" d="M225 730H270"/><path class="edge" d="M440 730H485"/><rect class="node" x="50" y="691" width="175" height="78" rx="7"/><text class="label" x="137.5" y="722">user-data.sh</text><text class="detail" x="137.5" y="747">prepara no 1º boot</text><rect class="node" x="270" y="691" width="170" height="78" rx="7"/><text class="label" x="355" y="722">benchmark.py</text><text class="detail" x="355" y="747">código de local/</text><rect class="node" x="485" y="691" width="110" height="78" rx="7"/><text class="label" x="540" y="722">server.py</text><text class="detail" x="540" y="747">HTTP :80</text>
 <rect class="panel" x="655" y="580" width="605" height="240" rx="10"/><text class="tag" x="685" y="620">WEB · GITHUB PAGES</text><text class="heading" x="685" y="650">Processamento no navegador</text><path class="edge" d="M920 730H975"/><rect class="node" x="695" y="691" width="225" height="78" rx="7"/><text class="label" x="807.5" y="722">runner.js</text><text class="detail" x="807.5" y="747">thread principal + fila</text><rect class="soft" x="975" y="691" width="225" height="78" rx="7"/><text class="label" x="1087.5" y="722">processor.js</text><text class="detail" x="1087.5" y="747">Web Workers · faixas</text>
 </svg>